<svg width="692" height="228" viewBox="0 0 692 228" fill="none" xmlns="http://www.w3.org/2000/svg">
<path d="M104.667 1.86665C91.3332 5.73332 81.4665 12.8 76.2665 22.4C73.0665 28.4 0.666504 224 0.666504 226.8C0.666504 227.6 11.5998 227.867 28.1332 227.733L55.5998 227.333L62.7998 206.667C66.7998 195.333 70.5332 185.6 71.0665 185.067C71.7332 184.4 93.0665 184.133 118.8 184.267L165.333 184.667L172.667 206.267L180 228H229.6H279.333V194V160H299.733H320L332.667 182.8C354.533 222 363.867 228 403.467 228H420.667V206V184H408.933C401.067 184 396.4 183.333 394.533 182.133C391.867 180.267 374 150.933 374 148.533C374 147.733 375.733 146.267 377.867 144.933C383.2 141.733 395.2 128.4 400.267 119.867C407.067 108.533 410.533 92.8 409.6 77.3333C409.2 69.4667 407.867 61.7333 406.133 56.8C404.533 52.4 403.333 48.6667 403.333 48.4C403.333 48.1333 415.733 48.1333 431.067 48.2667L458.667 48.6667L459.333 112.667C460 174.4 460.133 176.933 462.933 183.733C475.067 213.467 498.4 228 533.6 228H548.667V206.133V184.4L537.6 183.733C524.533 183.067 518.533 180.267 515.067 173.333C512.933 169.067 512.667 163.067 512.667 108.4V48L556 48.2667L599.333 48.4V116.133V184H580H560.667V206V228H626H691.333V206V184.133L672.4 183.733L653.333 183.333V116V48.6667L672.4 48.2667L691.333 47.8667V26V3.99999H544.667H398V21.2V38.4L387.733 28C380.133 20.5333 374.667 16.4 367.333 12.8C350.4 4.53332 345.6 3.99999 282.4 3.99999H226V98.9333C226 157.467 225.467 193.2 224.667 191.867C224 190.8 210.533 154.4 194.667 111.2C178.8 68 164.667 30.1333 163.2 26.9333C158.8 16.8 153.2 11.0667 142.667 5.86666C134.267 1.73332 131.333 0.933321 121.733 0.533321C115.067 0.266655 108.267 0.799988 104.667 1.86665ZM136.533 92.2667C144.133 116 150.667 136.4 151.067 137.6C151.6 139.867 149.467 140 118.133 140C99.7332 140 84.6665 139.733 84.6665 139.467C84.6665 136.667 115.733 48.6667 116.933 47.8667C120.933 45.3333 123.067 50.2667 136.533 92.2667ZM336.8 51.6C359.467 61.7333 363.333 93.8667 343.733 108.8C336 114.667 328.267 116 302 116H279.333V81.8667V47.7333L305.067 48.2667C327.067 48.8 331.467 49.3333 336.8 51.6Z" fill="black"/>
</svg>
